P3
# CREATOR: GIMP PNM Filter Version 1.1
128 32
255
0
0
0
0
0
0
0
0
0
0
0
0
0
0
0
0
0
0
0
0
0
0
0
0
0
0
0
0
0
0
0
0
0
0
0
0
0
0
0
255
255
0
255
255
0
255
255
0
255
255
0
255
255
0
0
0
0
0
0
0
0
0
0
0
0
0
0
0
0
0
0
0
0
0
0
0
0
0
0
0
0
0
0
0
0
0
0
0
0
0
0
0
0
0
0
0
0
0
0
0
0
0
0
0
0
0
0
0
0
0
0
0
0
0
0
0
0
0
0
0
160
0
0
160
0
0
160
0
0
160
0
0
160
0
0
160
0
0
160
0
0
160
0
0
160
0
0
160
0
0
160
0
0
160
0
0
160
0
0
160
0
0
160
0
0
160
0
0
0
0
0
0
0
0
0
0
0
0
0
0
0
0
0
0
0
0
0
0
0
0
0
0
0
0
0
0
0
0
0
0
0
0
0
0
0
0
0
0
0
0
0
0
0
0
0
0
0
0
0
0
0
0
0
0
0
0
0
0
0
0
0
0
0
0
0
0
0
0
0
0
0
0
0
0
0
0
0
0
0
0
0
0
241
241
0
241
241
0
241
241
0
241
241
0
0
0
0
0
0
0
0
0
0
0
0
0
0
0
0
0
0
0
0
0
0
0
0
0
0
0
0
0
0
0
0
0
0
0
0
0
0
0
0
0
0
0
0
0
0
0
0
0
0
0
0
0
0
0
0
0
0
0
0
0
0
0
0
0
0
0
0
0
0
0
0
0
0
0
0
0
0
0
192
192
192
192
192
192
255
255
148
255
255
148
192
192
192
192
192
192
192
192
192
0
0
0
0
0
0
0
0
0
0
0
0
0
0
0
0
0
0
0
0
0
0
0
0
0
0
0
0
0
0
0
0
0
0
0
0
0
0
0
0
0
0
0
0
0
0
0
0
0
0
0
0
0
0
0
0
0
0
0
0
255
255
0
255
255
0
255
255
0
255
255
0
255
255
0
0
0
0
0
0
0
0
0
0
0
0
0
0
0
0
0
0
0
0
0
0
0
0
0
0
0
0
0
0
0
0
0
0
0
0
0
0
0
0
0
0
0
0
0
0
0
0
0
0
0
0
0
0
0
0
0
0
0
0
0
0
0
0
0
0
0
160
0
0
160
0
0
160
0
0
160
0
0
160
0
0
160
0
0
160
0
0
160
0
0
160
0
0
160
0
0
160
0
0
160
0
0
160
0
0
160
0
0
160
0
0
160
0
0
0
0
0
0
0
0
0
0
0
0
0
0
0
0
0
0
0
0
0
0
0
0
0
0
0
0
0
0
0
0
0
0
0
0
0
0
0
0
0
0
0
0
0
0
0
0
0
0
0
0
0
0
0
0
0
0
0
0
0
0
0
0
0
0
0
0
0
0
0
0
0
0
0
0
0
0
0
0
0
0
0
0
0
0
241
241
0
241
241
0
241
241
0
241
241
0
0
0
0
0
0
0
0
0
0
0
0
0
0
0
0
0
0
0
0
0
0
0
0
0
0
0
0
0
0
0
0
0
0
0
0
0
0
0
0
0
0
0
0
0
0
0
0
0
0
0
0
0
0
0
0
0
0
0
0
0
0
0
0
0
0
0
0
0
0
0
0
0
0
0
0
0
0
0
192
192
192
192
192
192
255
255
148
255
255
148
192
192
192
192
192
192
192
192
192
0
0
0
0
0
0
0
0
0
0
0
0
0
0
0
0
0
0
0
0
0
0
0
0
0
0
0
0
0
0
0
0
0
0
0
0
0
0
0
0
0
0
0
0
0
255
255
0
255
255
0
255
255
0
255
255
0
255
255
0
0
0
0
0
0
0
0
0
0
0
0
0
0
0
0
255
255
0
255
255
0
255
255
0
255
255
0
255
255
0
0
0
0
0
0
0
0
0
0
0
0
0
0
0
0
0
0
0
0
0
0
0
0
0
0
0
0
0
0
0
0
0
0
0
0
0
0
0
0
0
0
0
0
0
0
160
0
0
160
0
0
160
0
0
160
0
0
160
0
0
160
0
0
160
0
0
160
0
0
160
0
0
160
0
0
160
0
0
160
0
0
160
0
0
160
0
0
160
0
0
160
0
0
160
0
0
160
0
0
160
0
0
160
0
0
0
0
0
0
0
0
0
0
0
0
0
0
0
0
0
0
0
0
0
0
0
0
0
0
0
0
0
0
0
0
0
0
0
0
0
0
0
0
0
0
0
0
0
0
0
0
0
0
0
0
0
0
0
0
0
0
0
0
0
0
0
0
0
0
0
0
0
0
0
0
0
0
241
241
0
241
241
0
241
241
241
241
241
241
241
241
0
241
241
0
0
0
0
0
0
0
0
0
0
0
0
0
0
0
0
0
0
0
0
0
0
0
0
0
0
0
0
0
0
0
0
0
0
0
0
0
0
0
0
0
0
0
0
0
0
0
0
0
0
0
0
0
0
0
0
0
0
0
0
0
0
0
0
0
0
0
0
0
0
0
0
0
255
255
148
255
255
148
255
255
148
255
255
148
0
0
0
0
0
0
0
0
0
0
0
0
0
0
0
0
0
0
0
0
0
0
0
0
0
0
0
0
0
0
0
0
0
0
0
0
0
0
0
0
0
0
0
0
0
0
0
0
0
0
0
0
0
0
0
0
0
0
0
0
255
255
0
255
255
0
255
255
0
255
255
0
255
255
0
0
0
0
0
0
0
0
0
0
0
0
0
0
0
0
255
255
0
255
255
0
255
255
0
255
255
0
255
255
0
0
0
0
0
0
0
0
0
0
0
0
0
0
0
0
0
0
0
0
0
0
0
0
0
0
0
0
0
0
0
0
0
0
0
0
0
0
0
0
0
0
0
0
0
0
160
0
0
160
0
0
160
0
0
160
0
0
160
0
0
160
0
0
160
0
0
160
0
0
160
0
0
160
0
0
160
0
0
160
0
0
160
0
0
160
0
0
160
0
0
160
0
0
160
0
0
160
0
0
160
0
0
160
0
0
0
0
0
0
0
0
0
0
0
0
0
0
0
0
0
0
0
0
0
0
0
0
0
0
0
0
0
0
0
0
0
0
0
0
0
0
0
0
0
0
0
0
0
0
0
0
0
0
0
0
0
0
0
0
0
0
0
0
0
0
0
0
0
0
0
0
0
0
0
0
0
0
241
241
0
241
241
0
241
241
241
241
241
241
241
241
0
241
241
0
0
0
0
0
0
0
0
0
0
0
0
0
0
0
0
0
0
0
0
0
0
0
0
0
0
0
0
0
0
0
0
0
0
0
0
0
0
0
0
0
0
0
0
0
0
0
0
0
0
0
0
0
0
0
0
0
0
0
0
0
0
0
0
0
0
0
0
0
0
0
0
0
255
255
148
255
255
148
255
255
148
255
255
148
0
0
0
0
0
0
0
0
0
0
0
0
0
0
0
0
0
0
0
0
0
0
0
0
0
0
0
0
0
0
0
0
0
0
0
0
0
0
0
0
0
0
0
0
0
0
0
0
0
0
0
0
0
0
0
0
0
0
0
0
255
255
0
255
255
0
255
255
0
255
255
0
255
255
0
0
0
0
0
0
0
0
0
0
0
0
0
0
0
0
255
255
0
255
255
0
255
255
0
255
255
0
255
255
0
0
0
0
0
0
0
0
0
0
0
0
0
0
0
0
0
0
0
0
0
0
0
0
0
0
0
0
0
0
0
0
0
0
0
0
0
0
0
0
0
0
0
0
0
0
0
0
0
0
0
0
160
0
0
160
0
0
160
0
0
160
0
0
160
0
0
160
0
0
160
0
0
160
0
0
160
0
0
160
0
0
160
0
0
160
0
0
160
0
0
160
0
0
160
0
0
160
0
0
0
0
0
0
0
0
0
0
0
0
0
0
0
0
0
0
0
0
0
0
0
0
0
0
0
0
0
0
0
0
0
0
0
0
0
0
0
0
0
0
0
0
0
0
0
0
0
0
0
0
0
0
0
0
0
0
0
0
0
0
0
0
0
0
0
0
0
0
0
0
0
0
241
241
0
241
241
0
241
241
241
241
241
241
241
241
0
241
241
0
0
0
0
0
0
0
241
241
0
241
241
0
241
241
0
241
241
0
0
0
0
0
0
0
0
0
0
0
0
0
0
0
0
0
0
0
0
0
0
0
0
0
0
0
0
0
0
0
0
0
0
0
0
0
0
0
0
0
0
0
0
0
0
0
0
0
0
0
0
0
0
0
0
0
0
0
0
0
255
255
148
255
255
148
255
255
148
255
255
148
0
0
0
0
0
0
0
0
0
0
0
0
0
0
0
0
0
0
0
0
0
0
0
0
0
0
0
0
0
0
0
0
0
0
0
0
0
0
0
0
0
0
0
0
0
0
0
0
0
0
0
0
0
0
255
255
0
255
255
0
255
255
0
255
255
0
255
255
0
255
255
0
255
255
0
255
255
0
255
255
0
255
255
0
255
255
0
255
255
0
255
255
0
255
255
0
255
255
0
255
255
255
255
255
255
255
255
0
255
255
0
255
255
0
0
0
0
0
0
0
0
0
0
0
0
0
0
0
0
0
0
0
0
0
0
0
0
0
0
0
0
0
0
0
0
0
0
0
0
0
0
0
0
0
0
0
160
0
0
160
0
0
160
0
0
160
0
0
160
0
0
160
0
0
160
0
0
160
0
0
160
0
0
160
0
0
160
0
0
160
0
0
160
0
0
160
0
0
160
0
0
160
0
0
0
0
0
0
0
0
0
0
0
0
0
0
0
0
0
0
0
0
0
0
0
0
0
0
0
0
0
0
0
0
0
0
0
0
0
0
0
0
0
0
0
0
0
0
0
0
0
0
0
0
0
0
0
0
0
0
0
0
0
0
0
0
0
0
0
0
0
0
0
0
0
0
241
241
0
241
241
0
241
241
241
241
241
241
241
241
0
241
241
0
0
0
0
0
0
0
241
241
0
241
241
0
241
241
0
241
241
0
0
0
0
0
0
0
0
0
0
0
0
0
0
0
0
0
0
0
0
0
0
0
0
0
0
0
0
0
0
0
0
0
0
0
0
0
0
0
0
0
0
0
0
0
0
0
0
0
0
0
0
255
255
148
255
255
148
255
255
148
192
192
192
192
192
192
0
0
0
0
0
0
0
0
0
0
0
0
0
0
0
0
0
0
0
0
0
0
0
0
0
0
0
0
0
0
0
0
0
0
0
0
0
0
0
0
0
0
0
0
0
0
0
0
0
0
0
0
0
0
0
0
0
0
0
0
255
255
0
255
255
0
255
255
0
255
255
0
255
255
0
255
255
0
255
255
0
255
255
0
255
255
0
255
255
0
255
255
0
255
255
0
255
255
0
255
255
0
255
255
0
255
255
255
255
255
255
255
255
0
255
255
0
255
255
0
0
0
0
0
0
0
0
0
0
0
0
0
0
0
0
0
0
0
0
0
0
0
0
0
0
0
0
0
0
0
0
0
0
0
0
0
0
0
0
0
0
0
241
241
241
241
241
241
143
224
174
143
224
174
143
224
174
143
224
174
143
224
174
143
224
174
143
224
174
143
224
174
143
224
174
143
224
174
143
224
174
143
224
174
241
241
241
241
241
241
0
0
0
0
0
0
0
0
0
0
0
0
0
0
0
0
0
0
0
0
0
0
0
0
0
0
0
0
0
0
0
0
0
0
0
0
0
0
0
0
0
0
0
0
0
0
0
0
0
0
0
0
0
0
0
0
0
0
0
0
0
0
0
0
0
0
241
241
0
241
241
0
241
241
0
241
241
0
241
241
0
241
241
0
0
0
0
0
0
0
241
241
0
241
241
0
241
241
241
241
241
241
241
241
0
241
241
0
0
0
0
0
0
0
0
0
0
0
0
0
0
0
0
0
0
0
0
0
0
0
0
0
0
0
0
0
0
0
0
0
0
0
0
0
0
0
0
0
0
0
0
0
0
0
0
0
0
0
0
255
255
148
255
255
148
255
255
148
192
192
192
192
192
192
0
0
0
0
0
0
0
0
0
0
0
0
0
0
0
0
0
0
0
0
0
0
0
0
0
0
0
0
0
0
0
0
0
0
0
0
0
0
0
0
0
0
0
0
0
0
0
0
0
0
0
0
0
0
0
0
0
0
0
0
255
255
0
255
255
0
255
255
0
255
255
0
255
255
0
255
255
0
255
255
0
255
255
0
255
255
0
255
255
0
255
255
0
255
255
0
255
255
0
255
255
0
255
255
0
255
255
255
255
255
255
255
255
0
255
255
0
255
255
0
0
0
0
0
0
0
0
0
0
0
0
0
0
0
0
0
0
0
0
0
0
0
0
0
0
0
0
0
0
0
0
0
0
0
0
0
0
0
0
0
0
0
241
241
241
241
241
241
143
224
174
143
224
174
143
224
174
143
224
174
143
224
174
143
224
174
143
224
174
143
224
174
143
224
174
143
224
174
143
224
174
143
224
174
241
241
241
241
241
241
0
0
0
0
0
0
0
0
0
0
0
0
0
0
0
0
0
0
0
0
0
0
0
0
0
0
0
0
0
0
0
0
0
0
0
0
0
0
0
0
0
0
0
0
0
0
0
0
0
0
0
0
0
0
0
0
0
0
0
0
0
0
0
0
0
0
241
241
0
241
241
0
241
241
0
241
241
0
241
241
0
241
241
0
0
0
0
0
0
0
241
241
0
241
241
0
241
241
241
241
241
241
241
241
0
241
241
0
0
0
0
0
0
0
0
0
0
0
0
0
0
0
0
0
0
0
0
0
0
0
0
0
0
0
0
0
0
0
0
0
0
0
0
0
0
0
0
0
0
0
0
0
0
128
128
128
128
128
128
255
255
148
255
255
148
255
255
148
128
128
128
128
128
128
128
128
128
128
128
128
0
0
0
0
0
0
0
0
0
0
0
0
0
0
0
0
0
0
0
0
0
0
0
0
0
0
0
0
0
0
0
0
0
0
0
0
0
0
0
0
0
0
0
0
0
0
0
0
0
0
0
0
0
0
255
255
0
255
255
0
255
255
0
255
255
0
255
255
0
255
255
0
255
255
0
255
255
0
255
255
0
255
255
0
255
255
0
255
255
0
255
255
0
255
255
0
255
255
0
255
255
255
255
255
255
255
255
0
255
255
0
255
255
0
0
0
0
0
0
0
0
0
0
0
0
0
0
0
0
0
0
0
0
0
0
0
0
0
0
0
0
0
0
0
0
0
0
0
0
0
0
0
0
0
0
0
0
0
0
0
0
0
241
241
241
241
241
241
143
224
174
143
224
174
143
224
174
143
224
174
143
224
174
143
224
174
143
224
174
143
224
174
241
241
241
241
241
241
0
0
0
0
0
0
0
0
0
0
0
0
0
0
0
0
0
0
0
0
0
0
0
0
0
0
0
0
0
0
0
0
0
0
0
0
0
0
0
0
0
0
0
0
0
0
0
0
0
0
0
0
0
0
0
0
0
0
0
0
0
0
0
0
0
0
241
241
0
241
241
0
241
241
0
241
241
0
241
241
0
241
241
0
0
0
0
0
0
0
241
241
0
241
241
0
241
241
241
241
241
241
241
241
0
241
241
0
0
0
0
0
0
0
241
241
0
241
241
0
241
241
0
241
241
0
0
0
0
0
0
0
0
0
0
0
0
0
0
0
0
0
0
0
0
0
0
0
0
0
0
0
0
0
0
0
0
0
0
128
128
128
128
128
128
255
255
148
255
255
148
255
255
148
128
128
128
128
128
128
128
128
128
128
128
128
0
0
0
0
0
0
0
0
0
0
0
0
0
0
0
0
0
0
0
0
0
0
0
0
0
0
0
0
0
0
0
0
0
0
0
0
0
0
0
0
0
0
0
0
0
0
0
0
0
0
0
0
0
0
255
255
0
255
255
0
255
255
0
255
255
0
255
255
0
255
255
0
255
255
0
255
255
0
255
255
0
255
255
0
255
255
0
255
255
0
255
255
0
255
255
0
255
255
0
255
255
255
255
255
255
255
255
0
255
255
0
255
255
0
0
0
0
0
0
0
0
0
0
0
0
0
0
0
0
0
0
0
0
0
0
0
0
0
0
0
0
0
0
0
0
0
0
0
0
0
0
0
0
0
0
0
0
0
0
0
0
0
241
241
241
241
241
241
143
224
174
143
224
174
143
224
174
143
224
174
143
224
174
143
224
174
143
224
174
143
224
174
241
241
241
241
241
241
0
0
0
0
0
0
0
0
0
0
0
0
0
0
0
0
0
0
0
0
0
0
0
0
0
0
0
0
0
0
0
0
0
0
0
0
0
0
0
0
0
0
0
0
0
0
0
0
0
0
0
0
0
0
0
0
0
0
0
0
0
0
0
0
0
0
241
241
0
241
241
0
241
241
0
241
241
0
241
241
0
241
241
0
0
0
0
0
0
0
241
241
0
241
241
0
241
241
241
241
241
241
241
241
0
241
241
0
0
0
0
0
0
0
241
241
0
241
241
0
241
241
0
241
241
0
0
0
0
0
0
0
0
0
0
0
0
0
0
0
0
0
0
0
0
0
0
0
0
0
0
0
0
0
0
0
0
0
0
192
192
192
192
192
192
128
128
128
128
128
128
128
128
128
192
192
192
192
192
192
192
192
192
192
192
192
0
0
0
0
0
0
0
0
0
0
0
0
0
0
0
0
0
0
0
0
0
0
0
0
0
0
0
0
0
0
0
0
0
0
0
0
0
0
0
0
0
0
0
0
0
0
0
0
0
0
0
0
0
0
255
255
0
255
255
0
255
255
0
255
255
0
255
255
0
255
255
0
255
255
0
255
255
0
255
255
0
255
255
0
255
255
0
255
255
0
255
255
0
255
255
0
255
255
0
255
255
255
255
255
255
255
255
0
255
255
0
255
255
0
0
0
0
0
0
0
0
0
0
0
0
0
0
0
0
0
0
0
0
0
0
0
0
0
0
0
0
0
0
0
0
0
0
0
0
0
0
0
0
0
0
0
0
0
0
0
0
0
241
241
241
241
241
241
160
0
0
160
0
0
160
0
0
160
0
0
160
0
0
160
0
0
160
0
0
160
0
0
241
241
241
241
241
241
0
0
0
0
0
0
0
0
0
0
0
0
0
0
0
0
0
0
0
0
0
0
0
0
0
0
0
0
0
0
0
0
0
0
0
0
0
0
0
0
0
0
0
0
0
0
0
0
0
0
0
0
0
0
0
0
0
0
0
0
0
0
0
0
0
0
241
241
0
241
241
0
241
241
241
241
241
241
241
241
0
241
241
0
241
241
0
241
241
0
241
241
0
241
241
0
241
241
0
241
241
0
0
0
0
0
0
0
241
241
0
241
241
0
241
241
241
241
241
241
241
241
0
241
241
0
0
0
0
0
0
0
0
0
0
0
0
0
0
0
0
0
0
0
0
0
0
0
0
0
0
0
0
0
0
0
0
0
0
192
192
192
192
192
192
128
128
128
128
128
128
128
128
128
192
192
192
192
192
192
192
192
192
192
192
192
0
0
0
0
0
0
0
0
0
0
0
0
0
0
0
0
0
0
0
0
0
0
0
0
0
0
0
0
0
0
0
0
0
0
0
0
0
0
0
0
0
0
0
0
0
0
0
0
0
0
0
0
0
0
255
255
0
255
255
0
255
255
0
255
255
0
255
255
0
255
255
0
255
255
0
255
255
0
255
255
0
255
255
0
255
255
0
255
255
0
255
255
0
255
255
0
255
255
0
255
255
255
255
255
255
255
255
0
255
255
0
255
255
0
0
0
0
0
0
0
0
0
0
0
0
0
0
0
0
0
0
0
0
0
0
0
0
0
0
0
0
0
0
0
0
0
0
0
0
0
0
0
0
0
0
0
0
0
0
0
0
0
241
241
241
241
241
241
160
0
0
160
0
0
160
0
0
160
0
0
160
0
0
160
0
0
160
0
0
160
0
0
241
241
241
241
241
241
0
0
0
0
0
0
0
0
0
0
0
0
0
0
0
0
0
0
0
0
0
0
0
0
0
0
0
0
0
0
0
0
0
0
0
0
0
0
0
0
0
0
0
0
0
0
0
0
0
0
0
0
0
0
0
0
0
0
0
0
0
0
0
0
0
0
241
241
0
241
241
0
241
241
241
241
241
241
241
241
0
241
241
0
241
241
0
241
241
0
241
241
0
241
241
0
241
241
0
241
241
0
0
0
0
0
0
0
241
241
0
241
241
0
241
241
241
241
241
241
241
241
0
241
241
0
0
0
0
0
0
0
0
0
0
0
0
0
0
0
0
0
0
0
0
0
0
0
0
0
0
0
0
0
0
0
0
0
0
222
222
222
222
222
222
192
192
192
192
192
192
192
192
192
192
192
192
192
192
192
192
192
192
192
192
192
0
0
0
0
0
0
0
0
0
0
0
0
0
0
0
0
0
0
0
0
0
0
0
0
0
0
0
0
0
0
0
0
0
0
0
0
0
0
0
0
0
0
0
0
0
255
255
0
255
255
0
255
255
0
255
255
0
255
255
0
255
255
0
255
255
0
255
255
0
255
255
0
255
255
0
255
255
0
255
255
0
255
255
0
255
255
0
255
255
0
255
255
0
255
255
0
255
255
0
255
255
0
255
255
0
255
255
255
255
255
255
255
255
255
255
255
0
255
255
0
0
0
0
0
0
0
0
0
0
0
0
0
0
0
0
0
0
0
0
0
0
0
0
0
0
0
0
0
0
0
0
0
0
0
0
0
0
0
0
0
0
0
0
0
0
0
0
0
241
241
241
241
241
241
160
0
0
160
0
0
160
0
0
160
0
0
241
241
241
241
241
241
0
0
0
0
0
0
0
0
0
0
0
0
0
0
0
0
0
0
0
0
0
0
0
0
0
0
0
0
0
0
0
0
0
0
0
0
0
0
0
0
0
0
0
0
0
0
0
0
0
0
0
0
0
0
0
0
0
0
0
0
0
0
0
0
0
0
0
0
0
0
0
0
241
241
0
241
241
0
241
241
241
241
241
241
241
241
0
241
241
0
241
241
0
241
241
0
241
241
0
241
241
0
0
0
0
0
0
0
241
241
0
241
241
0
241
241
241
241
241
241
241
241
0
241
241
0
0
0
0
0
0
0
0
0
0
0
0
0
0
0
0
0
0
0
0
0
0
0
0
0
0
0
0
0
0
0
0
0
0
0
0
0
0
0
0
222
222
222
222
222
222
192
192
192
192
192
192
192
192
192
192
192
192
192
192
192
192
192
192
192
192
192
0
0
0
0
0
0
0
0
0
0
0
0
0
0
0
0
0
0
0
0
0
0
0
0
0
0
0
0
0
0
0
0
0
0
0
0
0
0
0
0
0
0
0
0
0
255
255
0
255
255
0
255
255
0
255
255
0
255
255
0
255
255
0
255
255
0
255
255
0
255
255
0
255
255
0
255
255
0
255
255
0
255
255
0
255
255
0
255
255
0
255
255
0
255
255
0
255
255
0
255
255
0
255
255
0
255
255
255
255
255
255
255
255
255
255
255
0
255
255
0
0
0
0
0
0
0
0
0
0
0
0
0
0
0
0
0
0
0
0
0
0
0
0
0
0
0
0
0
0
0
0
0
0
0
0
0
0
0
0
0
0
0
0
0
0
0
0
0
241
241
241
241
241
241
160
0
0
160
0
0
160
0
0
160
0
0
241
241
241
241
241
241
0
0
0
0
0
0
0
0
0
0
0
0
0
0
0
0
0
0
0
0
0
0
0
0
0
0
0
0
0
0
0
0
0
0
0
0
0
0
0
0
0
0
0
0
0
0
0
0
0
0
0
0
0
0
0
0
0
0
0
0
0
0
0
0
0
0
0
0
0
0
0
0
241
241
0
241
241
0
241
241
241
241
241
241
241
241
0
241
241
0
241
241
0
241
241
0
241
241
0
241
241
0
0
0
0
0
0
0
241
241
0
241
241
0
241
241
241
241
241
241
241
241
0
241
241
0
0
0
0
0
0
0
0
0
0
0
0
0
0
0
0
0
0
0
0
0
0
0
0
0
0
0
0
0
0
0
0
0
0
0
0
0
0
0
0
222
222
222
222
222
222
192
192
192
192
192
192
192
192
192
192
192
192
192
192
192
192
192
192
192
192
192
0
0
0
0
0
0
0
0
0
0
0
0
0
0
0
0
0
0
0
0
0
0
0
0
0
0
0
0
0
0
0
0
0
0
0
0
0
0
0
0
0
0
0
0
0
255
255
0
255
255
0
255
255
0
255
255
0
255
255
0
255
255
0
255
255
0
255
255
0
255
255
0
255
255
0
255
255
0
255
255
0
255
255
0
255
255
0
255
255
0
255
255
0
255
255
0
255
255
0
255
255
0
255
255
0
255
255
255
255
255
255
255
255
255
255
255
0
255
255
0
0
0
0
0
0
0
0
0
0
0
0
0
0
0
0
0
0
0
0
0
0
0
0
0
0
0
0
0
0
0
0
0
0
0
0
0
0
0
0
0
0
0
0
0
0
0
0
0
0
0
0
0
0
0
160
0
0
160
0
0
241
241
241
241
241
241
0
0
0
0
0
0
0
0
0
0
0
0
0
0
0
0
0
0
0
0
0
0
0
0
0
0
0
0
0
0
0
0
0
0
0
0
0
0
0
0
0
0
0
0
0
0
0
0
0
0
0
0
0
0
0
0
0
0
0
0
0
0
0
0
0
0
0
0
0
0
0
0
0
0
0
0
0
0
241
241
0
241
241
0
241
241
0
241
241
0
241
241
0
241
241
0
241
241
0
241
241
0
241
241
0
241
241
0
241
241
0
241
241
0
241
241
0
241
241
0
241
241
0
241
241
0
0
0
0
0
0
0
0
0
0
0
0
0
0
0
0
0
0
0
0
0
0
0
0
0
0
0
0
0
0
0
0
0
0
0
0
0
0
0
0
128
128
128
128
128
128
222
222
222
222
222
222
192
192
192
192
192
192
192
192
192
192
192
192
192
192
192
192
192
192
192
192
192
128
128
128
128
128
128
0
0
0
0
0
0
0
0
0
0
0
0
0
0
0
0
0
0
0
0
0
0
0
0
0
0
0
0
0
0
0
0
0
0
0
0
0
0
0
255
255
0
255
255
0
255
255
0
255
255
0
255
255
0
255
255
0
255
255
0
255
255
0
255
255
0
255
255
0
255
255
0
255
255
0
255
255
0
255
255
0
255
255
0
255
255
0
255
255
0
255
255
0
255
255
0
255
255
0
255
255
255
255
255
255
255
255
255
255
255
0
255
255
0
0
0
0
0
0
0
0
0
0
0
0
0
0
0
0
0
0
0
0
0
0
0
0
0
0
0
0
0
0
0
0
0
0
0
0
0
0
0
0
0
0
0
0
0
0
0
0
0
0
0
0
0
0
0
160
0
0
160
0
0
241
241
241
241
241
241
0
0
0
0
0
0
0
0
0
0
0
0
0
0
0
0
0
0
0
0
0
0
0
0
0
0
0
0
0
0
0
0
0
0
0
0
0
0
0
0
0
0
0
0
0
0
0
0
0
0
0
0
0
0
0
0
0
0
0
0
0
0
0
0
0
0
0
0
0
0
0
0
0
0
0
0
0
0
241
241
0
241
241
0
241
241
0
241
241
0
241
241
0
241
241
0
241
241
0
241
241
0
241
241
0
241
241
0
241
241
0
241
241
0
241
241
0
241
241
0
241
241
0
241
241
0
0
0
0
0
0
0
0
0
0
0
0
0
0
0
0
0
0
0
0
0
0
0
0
0
0
0
0
0
0
0
0
0
0
0
0
0
0
0
0
128
128
128
128
128
128
222
222
222
222
222
222
192
192
192
192
192
192
192
192
192
192
192
192
192
192
192
192
192
192
192
192
192
128
128
128
128
128
128
0
0
0
0
0
0
0
0
0
0
0
0
0
0
0
0
0
0
0
0
0
0
0
0
0
0
0
0
0
0
0
0
0
0
0
0
0
0
0
255
255
0
255
255
0
255
255
0
255
255
0
255
255
0
255
255
0
255
255
0
255
255
0
255
255
0
255
255
0
255
255
0
255
255
0
255
255
0
255
255
0
255
255
0
255
255
0
255
255
0
255
255
0
255
255
0
255
255
0
255
255
255
255
255
255
255
255
255
255
255
0
255
255
0
0
0
0
0
0
0
0
0
0
0
0
0
0
0
0
0
0
0
0
0
0
0
0
0
0
0
0
0
0
0
0
0
0
0
0
0
0
0
0
0
0
0
0
0
0
0
0
0
0
0
0
0
0
0
241
241
241
241
241
241
160
0
0
160
0
0
0
0
0
0
0
0
0
0
0
0
0
0
0
0
0
0
0
0
0
0
0
0
0
0
0
0
0
0
0
0
0
0
0
0
0
0
0
0
0
0
0
0
0
0
0
0
0
0
0
0
0
0
0
0
0
0
0
0
0
0
0
0
0
0
0
0
0
0
0
0
0
0
241
241
0
241
241
0
241
241
241
241
241
241
241
241
0
241
241
0
224
174
0
224
174
0
224
174
0
224
174
0
224
174
0
224
174
0
241
241
0
241
241
0
241
241
0
241
241
0
0
0
0
0
0
0
0
0
0
0
0
0
0
0
0
0
0
0
0
0
0
0
0
0
0
0
0
0
0
0
0
0
0
0
0
0
0
0
0
0
0
0
0
0
0
222
222
222
222
222
222
128
128
128
128
128
128
192
192
192
192
192
192
192
192
192
192
192
192
192
192
192
192
192
192
192
192
192
192
192
192
192
192
192
0
0
0
0
0
0
0
0
0
0
0
0
0
0
0
0
0
0
0
0
0
0
0
0
0
0
0
0
0
0
0
0
0
0
0
0
0
0
0
255
255
0
255
255
0
255
255
0
255
255
0
255
255
0
255
255
0
255
255
0
255
255
0
255
255
0
255
255
0
255
255
0
255
255
0
255
255
0
255
255
0
255
255
0
255
255
0
255
255
0
255
255
0
255
255
0
255
255
0
255
255
255
255
255
255
255
255
255
255
255
0
255
255
0
0
0
0
0
0
0
0
0
0
0
0
0
0
0
0
0
0
0
0
0
0
0
0
0
0
0
0
0
0
0
0
0
0
0
0
0
0
0
0
0
0
0
0
0
0
0
0
0
0
0
0
0
0
0
241
241
241
241
241
241
160
0
0
160
0
0
0
0
0
0
0
0
0
0
0
0
0
0
0
0
0
0
0
0
0
0
0
0
0
0
0
0
0
0
0
0
0
0
0
0
0
0
0
0
0
0
0
0
0
0
0
0
0
0
0
0
0
0
0
0
0
0
0
0
0
0
0
0
0
0
0
0
0
0
0
0
0
0
241
241
0
241
241
0
241
241
241
241
241
241
241
241
0
241
241
0
224
174
0
224
174
0
224
174
0
224
174
0
224
174
0
224
174
0
241
241
0
241
241
0
241
241
0
241
241
0
0
0
0
0
0
0
0
0
0
0
0
0
0
0
0
0
0
0
0
0
0
0
0
0
0
0
0
0
0
0
0
0
0
0
0
0
0
0
0
0
0
0
0
0
0
222
222
222
222
222
222
128
128
128
128
128
128
192
192
192
192
192
192
192
192
192
192
192
192
192
192
192
192
192
192
192
192
192
192
192
192
192
192
192
0
0
0
0
0
0
0
0
0
0
0
0
0
0
0
0
0
0
0
0
0
0
0
0
0
0
0
0
0
0
0
0
0
0
0
0
0
0
0
255
255
0
255
255
0
255
255
0
255
255
0
255
255
0
255
255
0
255
255
0
255
255
0
255
255
0
255
255
0
255
255
0
255
255
0
255
255
0
255
255
0
255
255
0
255
255
0
255
255
0
255
255
0
255
255
0
255
255
0
255
255
255
255
255
255
255
255
255
255
255
0
255
255
0
0
0
0
0
0
0
0
0
0
0
0
0
0
0
0
0
0
0
0
0
0
0
0
0
0
0
0
0
0
0
0
0
0
0
0
0
0
0
0
0
0
0
0
0
0
0
0
0
241
241
241
241
241
241
160
0
0
160
0
0
143
224
174
143
224
174
241
241
241
241
241
241
0
0
0
0
0
0
0
0
0
0
0
0
0
0
0
0
0
0
0
0
0
0
0
0
0
0
0
0
0
0
0
0
0
0
0
0
0
0
0
0
0
0
0
0
0
0
0
0
0
0
0
0
0
0
0
0
0
0
0
0
241
241
0
241
241
0
241
241
241
241
241
241
241
241
0
241
241
0
224
174
0
224
174
0
241
241
0
241
241
0
241
241
0
241
241
0
241
241
0
241
241
0
241
241
0
241
241
0
0
0
0
0
0
0
0
0
0
0
0
0
0
0
0
0
0
0
0
0
0
0
0
0
0
0
0
0
0
0
0
0
0
0
0
0
0
0
0
0
0
0
0
0
0
222
222
222
222
222
222
222
222
222
222
222
222
128
128
128
128
128
128
222
222
222
222
222
222
222
222
222
192
192
192
192
192
192
192
192
192
192
192
192
128
128
128
128
128
128
192
192
192
192
192
192
192
192
192
0
0
0
0
0
0
0
0
0
0
0
0
0
0
0
0
0
0
0
0
0
0
0
0
0
0
0
0
0
0
255
255
0
255
255
0
255
255
0
255
255
0
255
255
0
255
255
0
255
255
0
255
255
0
255
255
0
255
255
0
255
255
0
255
255
0
255
255
0
255
255
0
255
255
0
255
255
0
255
255
0
255
255
0
255
255
0
255
255
0
255
255
255
255
255
255
255
255
255
255
255
0
255
255
0
0
0
0
0
0
0
0
0
0
0
0
0
0
0
0
0
0
0
0
0
0
0
0
0
0
0
0
0
0
0
0
0
0
0
0
0
0
0
0
0
0
0
0
0
0
0
0
0
241
241
241
241
241
241
160
0
0
160
0
0
143
224
174
143
224
174
241
241
241
241
241
241
0
0
0
0
0
0
0
0
0
0
0
0
0
0
0
0
0
0
0
0
0
0
0
0
0
0
0
0
0
0
0
0
0
0
0
0
0
0
0
0
0
0
0
0
0
0
0
0
0
0
0
0
0
0
0
0
0
0
0
0
241
241
0
241
241
0
241
241
241
241
241
241
241
241
0
241
241
0
224
174
0
224
174
0
241
241
0
241
241
0
241
241
0
241
241
0
241
241
0
241
241
0
241
241
0
241
241
0
0
0
0
0
0
0
0
0
0
0
0
0
0
0
0
0
0
0
0
0
0
0
0
0
0
0
0
0
0
0
0
0
0
0
0
0
0
0
0
0
0
0
0
0
0
222
222
222
222
222
222
222
222
222
222
222
222
128
128
128
128
128
128
222
222
222
222
222
222
222
222
222
192
192
192
192
192
192
192
192
192
192
192
192
128
128
128
128
128
128
192
192
192
192
192
192
192
192
192
0
0
0
0
0
0
0
0
0
0
0
0
0
0
0
0
0
0
0
0
0
0
0
0
255
255
0
255
255
0
255
255
0
255
255
0
255
255
0
255
255
0
255
255
0
255
255
0
255
255
0
255
255
0
255
255
0
255
255
0
255
255
0
255
255
0
255
255
0
255
255
0
255
255
0
255
255
0
255
255
0
255
255
0
255
255
0
255
255
0
255
255
0
255
255
0
255
255
0
255
255
0
255
255
0
255
255
0
255
255
0
255
255
0
0
0
0
0
0
0
0
0
0
0
0
0
0
0
0
0
0
0
0
0
0
0
0
0
0
0
0
0
0
0
0
0
0
241
241
241
241
241
241
143
224
174
143
224
174
143
224
174
143
224
174
160
0
0
160
0
0
143
224
174
143
224
174
241
241
241
241
241
241
0
0
0
0
0
0
0
0
0
0
0
0
0
0
0
0
0
0
0
0
0
0
0
0
0
0
0
0
0
0
0
0
0
0
0
0
0
0
0
0
0
0
0
0
0
0
0
0
241
241
0
241
241
0
241
241
241
241
241
241
241
241
0
241
241
0
224
174
0
224
174
0
241
241
0
241
241
0
0
0
0
0
0
0
0
0
0
0
0
0
0
0
0
0
0
0
0
0
0
0
0
0
0
0
0
0
0
0
0
0
0
0
0
0
0
0
0
0
0
0
0
0
0
0
0
0
0
0
0
0
0
0
0
0
0
0
0
0
0
0
0
0
0
0
0
0
0
222
222
222
222
222
222
222
222
222
222
222
222
128
128
128
128
128
128
222
222
222
222
222
222
222
222
222
192
192
192
192
192
192
192
192
192
192
192
192
128
128
128
128
128
128
192
192
192
192
192
192
192
192
192
0
0
0
0
0
0
0
0
0
0
0
0
0
0
0
0
0
0
0
0
0
0
0
0
255
255
0
255
255
0
255
255
0
255
255
0
255
255
0
255
255
0
255
255
0
255
255
0
255
255
0
255
255
0
255
255
0
255
255
0
255
255
0
255
255
0
255
255
0
255
255
0
255
255
0
255
255
0
255
255
0
255
255
0
255
255
0
255
255
0
255
255
0
255
255
0
255
255
0
255
255
0
255
255
0
255
255
0
255
255
0
255
255
0
0
0
0
0
0
0
0
0
0
0
0
0
0
0
0
0
0
0
0
0
0
0
0
0
0
0
0
0
0
0
0
0
0
241
241
241
241
241
241
143
224
174
143
224
174
143
224
174
143
224
174
160
0
0
160
0
0
143
224
174
143
224
174
241
241
241
241
241
241
0
0
0
0
0
0
0
0
0
0
0
0
0
0
0
0
0
0
0
0
0
0
0
0
0
0
0
0
0
0
0
0
0
0
0
0
0
0
0
0
0
0
0
0
0
0
0
0
241
241
0
241
241
0
241
241
241
241
241
241
241
241
0
241
241
0
224
174
0
224
174
0
241
241
0
241
241
0
0
0
0
0
0
0
0
0
0
0
0
0
0
0
0
0
0
0
0
0
0
0
0
0
0
0
0
0
0
0
0
0
0
0
0
0
0
0
0
0
0
0
0
0
0
0
0
0
0
0
0
0
0
0
0
0
0
0
0
0
192
192
192
192
192
192
192
192
192
222
222
222
222
222
222
192
192
192
192
192
192
192
192
192
192
192
192
128
128
128
128
128
128
128
128
128
222
222
222
222
222
222
192
192
192
192
192
192
192
192
192
192
192
192
128
128
128
128
128
128
128
128
128
192
192
192
192
192
192
0
0
0
0
0
0
0
0
0
0
0
0
0
0
0
0
0
0
255
255
0
255
255
0
255
255
0
255
255
0
255
255
0
255
255
0
255
255
0
255
255
0
255
255
0
255
255
0
255
255
0
255
255
0
255
255
0
255
255
0
255
255
0
255
255
0
255
255
0
255
255
0
255
255
0
255
255
0
255
255
0
255
255
0
255
255
0
255
255
0
255
255
0
255
255
0
255
255
0
255
255
0
255
255
0
255
255
0
0
0
0
0
0
0
0
0
0
0
0
0
0
0
0
0
0
0
0
0
0
0
0
0
0
0
0
0
0
0
0
0
0
241
241
241
241
241
241
143
224
174
143
224
174
160
0
0
160
0
0
143
224
174
143
224
174
143
224
174
143
224
174
241
241
241
241
241
241
0
0
0
0
0
0
0
0
0
0
0
0
0
0
0
0
0
0
0
0
0
0
0
0
0
0
0
0
0
0
0
0
0
0
0
0
0
0
0
0
0
0
241
241
0
241
241
0
241
241
241
241
241
241
241
241
0
241
241
0
224
174
0
224
174
0
241
241
0
241
241
0
0
0
0
0
0
0
0
0
0
0
0
0
0
0
0
0
0
0
0
0
0
0
0
0
0
0
0
0
0
0
0
0
0
0
0
0
0
0
0
0
0
0
0
0
0
0
0
0
0
0
0
0
0
0
0
0
0
0
0
0
0
0
0
0
0
0
192
192
192
192
192
192
192
192
192
222
222
222
222
222
222
192
192
192
192
192
192
192
192
192
192
192
192
128
128
128
128
128
128
128
128
128
222
222
222
222
222
222
192
192
192
192
192
192
192
192
192
192
192
192
128
128
128
128
128
128
128
128
128
192
192
192
192
192
192
0
0
0
0
0
0
0
0
0
0
0
0
0
0
0
0
0
0
255
255
0
255
255
0
255
255
0
255
255
0
255
255
0
255
255
0
255
255
0
255
255
0
255
255
0
255
255
0
255
255
0
255
255
0
255
255
0
255
255
0
255
255
0
255
255
0
255
255
0
255
255
0
255
255
0
255
255
0
255
255
0
255
255
0
255
255
0
255
255
0
255
255
0
255
255
0
255
255
0
255
255
0
255
255
0
255
255
0
0
0
0
0
0
0
0
0
0
0
0
0
0
0
0
0
0
0
0
0
0
0
0
0
0
0
0
0
0
0
0
0
0
241
241
241
241
241
241
143
224
174
143
224
174
160
0
0
160
0
0
143
224
174
143
224
174
143
224
174
143
224
174
241
241
241
241
241
241
0
0
0
0
0
0
0
0
0
0
0
0
0
0
0
0
0
0
0
0
0
0
0
0
0
0
0
0
0
0
0
0
0
0
0
0
0
0
0
0
0
0
241
241
0
241
241
0
241
241
241
241
241
241
241
241
0
241
241
0
224
174
0
224
174
0
241
241
0
241
241
0
0
0
0
0
0
0
0
0
0
0
0
0
0
0
0
0
0
0
0
0
0
0
0
0
0
0
0
0
0
0
0
0
0
0
0
0
0
0
0
0
0
0
0
0
0
0
0
0
0
0
0
0
0
0
0
0
0
0
0
0
128
128
128
128
128
128
222
222
222
222
222
222
222
222
222
222
222
222
222
222
222
192
192
192
192
192
192
192
192
192
192
192
192
192
192
192
192
192
192
192
192
192
128
128
128
128
128
128
222
222
222
222
222
222
192
192
192
192
192
192
128
128
128
128
128
128
128
128
128
128
128
128
128
128
128
128
128
128
128
128
128
0
0
0
0
0
0
0
0
0
0
0
0
255
255
0
255
255
0
255
255
0
255
255
0
255
255
0
255
255
0
255
255
0
255
255
0
255
255
0
255
255
0
255
255
0
255
255
0
255
255
0
255
255
0
255
255
0
255
255
0
255
255
0
255
255
0
255
255
0
255
255
0
255
255
0
255
255
0
255
255
0
255
255
0
255
255
0
255
255
0
255
255
0
255
255
0
255
255
0
255
255
0
0
0
0
0
0
0
0
0
0
0
0
0
0
0
0
0
0
0
0
0
0
0
0
0
0
0
0
241
241
241
241
241
241
143
224
174
143
224
174
143
224
174
143
224
174
143
224
174
143
224
174
160
0
0
160
0
0
143
224
174
143
224
174
143
224
174
143
224
174
241
241
241
241
241
241
0
0
0
0
0
0
0
0
0
0
0
0
0
0
0
0
0
0
0
0
0
0
0
0
0
0
0
0
0
0
241
241
0
241
241
0
241
241
241
241
241
241
241
241
0
241
241
0
224
174
0
224
174
0
241
241
0
241
241
0
0
0
0
0
0
0
0
0
0
0
0
0
0
0
0
0
0
0
0
0
0
0
0
0
0
0
0
0
0
0
0
0
0
0
0
0
0
0
0
0
0
0
0
0
0
0
0
0
0
0
0
0
0
0
0
0
0
0
0
0
0
0
0
0
0
0
128
128
128
128
128
128
222
222
222
222
222
222
222
222
222
222
222
222
222
222
222
192
192
192
192
192
192
192
192
192
192
192
192
192
192
192
192
192
192
192
192
192
128
128
128
128
128
128
222
222
222
222
222
222
192
192
192
192
192
192
128
128
128
128
128
128
128
128
128
128
128
128
128
128
128
128
128
128
128
128
128
0
0
0
0
0
0
0
0
0
0
0
0
255
255
0
255
255
0
192
192
0
192
192
0
192
192
0
192
192
0
192
192
0
192
192
0
192
192
0
192
192
0
192
192
0
192
192
0
192
192
0
192
192
0
192
192
0
255
255
0
255
255
0
255
255
0
255
255
0
255
255
0
192
192
0
192
192
0
192
192
0
192
192
0
192
192
0
192
192
0
192
192
0
255
255
0
255
255
0
255
255
0
0
0
0
0
0
0
0
0
0
0
0
0
0
0
0
0
0
0
0
0
0
0
0
0
0
0
0
241
241
241
241
241
241
143
224
174
143
224
174
143
224
174
143
224
174
143
224
174
143
224
174
160
0
0
160
0
0
143
224
174
143
224
174
143
224
174
143
224
174
241
241
241
241
241
241
0
0
0
0
0
0
0
0
0
0
0
0
0
0
0
0
0
0
0
0
0
0
0
0
0
0
0
0
0
0
241
241
0
241
241
0
241
241
241
241
241
241
241
241
0
241
241
0
224
174
0
224
174
0
241
241
0
241
241
0
0
0
0
0
0
0
0
0
0
0
0
0
0
0
0
0
0
0
0
0
0
0
0
0
0
0
0
0
0
0
0
0
0
0
0
0
0
0
0
0
0
0
0
0
0
0
0
0
0
0
0
0
0
0
0
0
0
0
0
0
0
0
0
0
0
0
192
192
192
192
192
192
222
222
222
222
222
222
222
222
222
192
192
192
192
192
192
128
128
128
128
128
128
192
192
192
192
192
192
192
192
192
192
192
192
192
192
192
192
192
192
192
192
192
192
192
192
192
192
192
222
222
222
222
222
222
128
128
128
128
128
128
128
128
128
128
128
128
128
128
128
192
192
192
192
192
192
0
0
0
0
0
0
0
0
0
0
0
0
255
255
0
255
255
0
192
192
0
192
192
0
192
192
0
192
192
0
192
192
0
192
192
0
192
192
0
192
192
0
192
192
0
192
192
0
192
192
0
192
192
0
192
192
0
255
255
0
255
255
0
255
255
0
255
255
0
255
255
0
192
192
0
192
192
0
192
192
0
192
192
0
192
192
0
192
192
0
192
192
0
255
255
0
255
255
0
255
255
0
0
0
0
0
0
0
0
0
0
0
0
0
0
0
0
0
0
0
0
0
0
0
0
0
0
0
0
241
241
241
241
241
241
143
224
174
143
224
174
160
0
0
160
0
0
160
0
0
160
0
0
160
0
0
160
0
0
160
0
0
160
0
0
143
224
174
143
224
174
241
241
241
241
241
241
0
0
0
0
0
0
0
0
0
0
0
0
0
0
0
0
0
0
0
0
0
0
0
0
241
241
0
241
241
0
241
241
0
241
241
0
241
241
0
241
241
0
224
174
0
224
174
0
241
241
0
241
241
0
0
0
0
0
0
0
0
0
0
0
0
0
0
0
0
0
0
0
0
0
0
0
0
0
0
0
0
0
0
0
0
0
0
0
0
0
0
0
0
0
0
0
0
0
0
0
0
0
0
0
0
0
0
0
0
0
0
0
0
0
0
0
0
0
0
0
0
0
0
0
0
0
192
192
192
192
192
192
222
222
222
222
222
222
222
222
222
192
192
192
192
192
192
128
128
128
128
128
128
192
192
192
192
192
192
192
192
192
192
192
192
192
192
192
192
192
192
192
192
192
192
192
192
192
192
192
222
222
222
222
222
222
128
128
128
128
128
128
128
128
128
128
128
128
128
128
128
192
192
192
192
192
192
0
0
0
0
0
0
0
0
0
0
0
0
255
255
0
255
255
0
128
128
0
128
128
0
128
128
0
128
128
0
128
128
0
128
128
0
128
128
0
128
128
0
128
128
0
128
128
0
128
128
0
128
128
0
128
128
0
255
255
0
255
255
0
255
255
255
255
255
255
255
255
255
128
128
0
128
128
0
128
128
0
128
128
0
128
128
0
128
128
0
128
128
0
255
255
0
255
255
0
255
255
0
0
0
0
0
0
0
0
0
0
0
0
0
0
0
0
0
0
0
0
0
0
0
0
0
0
0
0
241
241
241
241
241
241
143
224
174
143
224
174
160
0
0
160
0
0
160
0
0
160
0
0
160
0
0
160
0
0
160
0
0
160
0
0
143
224
174
143
224
174
241
241
241
241
241
241
0
0
0
0
0
0
0
0
0
0
0
0
0
0
0
0
0
0
0
0
0
0
0
0
241
241
0
241
241
0
241
241
0
241
241
0
241
241
0
241
241
0
224
174
0
224
174
0
241
241
0
241
241
0
0
0
0
0
0
0
0
0
0
0
0
0
0
0
0
0
0
0
0
0
0
0
0
0
0
0
0
0
0
0
0
0
0
0
0
0
0
0
0
0
0
0
0
0
0
0
0
0
0
0
0
0
0
0
0
0
0
0
0
0
0
0
0
0
0
0
0
0
0
0
0
0
192
192
192
192
192
192
222
222
222
222
222
222
222
222
222
192
192
192
192
192
192
192
192
192
192
192
192
192
192
192
192
192
192
192
192
192
192
192
192
192
192
192
192
192
192
192
192
192
192
192
192
192
192
192
128
128
128
128
128
128
128
128
128
128
128
128
128
128
128
128
128
128
128
128
128
192
192
192
192
192
192
0
0
0
0
0
0
0
0
0
0
0
0
255
255
0
255
255
0
128
128
0
128
128
0
128
128
0
128
128
0
128
128
0
128
128
0
128
128
0
128
128
0
128
128
0
128
128
0
128
128
0
128
128
0
128
128
0
255
255
0
255
255
0
255
255
255
255
255
255
255
255
255
128
128
0
128
128
0
128
128
0
128
128
0
128
128
0
128
128
0
128
128
0
255
255
0
255
255
0
255
255
0
0
0
0
0
0
0
0
0
0
0
0
0
0
0
0
0
0
0
0
0
0
128
0
0
128
0
0
128
0
0
128
0
0
143
224
174
143
224
174
143
224
174
143
224
174
143
224
174
143
224
174
143
224
174
143
224
174
143
224
174
143
224
174
143
224
174
143
224
174
128
0
0
128
0
0
128
0
0
128
0
0
0
0
0
0
0
0
0
0
0
0
0
0
0
0
0
0
0
0
241
241
0
241
241
0
224
174
0
224
174
0
224
174
0
224
174
0
241
241
0
241
241
0
0
0
0
0
0
0
0
0
0
0
0
0
0
0
0
0
0
0
0
0
0
0
0
0
0
0
0
0
0
0
0
0
0
0
0
0
0
0
0
0
0
0
0
0
0
0
0
0
0
0
0
0
0
0
0
0
0
0
0
0
0
0
0
0
0
0
0
0
0
0
0
0
0
0
0
0
0
0
192
192
192
192
192
192
222
222
222
222
222
222
222
222
222
192
192
192
192
192
192
192
192
192
192
192
192
192
192
192
192
192
192
192
192
192
192
192
192
192
192
192
192
192
192
192
192
192
192
192
192
192
192
192
128
128
128
128
128
128
128
128
128
128
128
128
128
128
128
128
128
128
128
128
128
192
192
192
192
192
192
0
0
0
0
0
0
0
0
0
0
0
0
255
255
0
255
255
0
128
128
0
128
128
0
128
128
0
128
128
0
128
128
0
128
128
0
128
128
0
128
128
0
128
128
0
128
128
0
128
128
0
128
128
0
128
128
0
255
255
0
255
255
0
255
255
255
255
255
255
255
255
255
128
128
0
128
128
0
128
128
0
128
128
0
128
128
0
128
128
0
128
128
0
255
255
0
255
255
0
255
255
0
0
0
0
0
0
0
0
0
0
0
0
0
0
0
0
0
0
0
0
0
0
128
0
0
128
0
0
128
0
0
128
0
0
143
224
174
143
224
174
143
224
174
143
224
174
143
224
174
143
224
174
143
224
174
143
224
174
143
224
174
143
224
174
143
224
174
143
224
174
128
0
0
128
0
0
128
0
0
128
0
0
0
0
0
0
0
0
0
0
0
0
0
0
0
0
0
0
0
0
241
241
0
241
241
0
224
174
0
224
174
0
224
174
0
224
174
0
241
241
0
241
241
0
0
0
0
0
0
0
0
0
0
0
0
0
0
0
0
0
0
0
0
0
0
0
0
0
0
0
0
0
0
0
0
0
0
0
0
0
0
0
0
0
0
0
0
0
0
0
0
0
0
0
0
0
0
0
0
0
0
0
0
0
0
0
0
0
0
0
0
0
0
0
0
0
0
0
0
0
0
0
192
192
192
192
192
192
222
222
222
222
222
222
222
222
222
192
192
192
192
192
192
192
192
192
192
192
192
192
192
192
192
192
192
192
192
192
192
192
192
192
192
192
192
192
192
192
192
192
192
192
192
192
192
192
128
128
128
128
128
128
128
128
128
128
128
128
128
128
128
128
128
128
128
128
128
192
192
192
192
192
192
0
0
0
0
0
0
0
0
0
0
0
0
0
0
0
0
0
0
192
192
0
192
192
0
192
192
0
192
192
0
192
192
0
192
192
0
192
192
0
192
192
0
192
192
0
192
192
0
192
192
0
192
192
0
192
192
0
128
128
0
128
128
0
255
255
0
255
255
0
255
255
0
192
192
0
192
192
0
192
192
0
192
192
0
192
192
0
192
192
0
192
192
0
0
0
0
0
0
0
0
0
0
0
0
0
0
0
0
0
0
0
0
0
0
0
0
0
0
0
0
0
0
0
0
0
0
0
0
0
128
0
0
128
0
0
128
0
0
128
0
0
128
0
0
128
0
0
128
0
0
128
0
0
128
0
0
128
0
0
128
0
0
128
0
0
128
0
0
128
0
0
128
0
0
128
0
0
0
0
0
0
0
0
0
0
0
0
0
0
0
0
0
0
0
0
0
0
0
0
0
0
0
0
0
0
0
0
241
241
0
241
241
0
241
241
0
241
241
0
0
0
0
0
0
0
0
0
0
0
0
0
0
0
0
0
0
0
0
0
0
0
0
0
0
0
0
0
0
0
0
0
0
0
0
0
0
0
0
0
0
0
0
0
0
0
0
0
0
0
0
0
0
0
0
0
0
0
0
0
0
0
0
0
0
0
0
0
0
0
0
0
0
0
0
0
0
0
0
0
0
0
0
0
0
0
0
0
0
0
192
192
192
192
192
192
192
192
192
192
192
192
192
192
192
192
192
192
192
192
192
192
192
192
192
192
192
192
192
192
192
192
192
192
192
192
192
192
192
192
192
192
128
128
128
128
128
128
128
128
128
128
128
128
192
192
192
192
192
192
192
192
192
192
192
192
192
192
192
0
0
0
0
0
0
0
0
0
0
0
0
0
0
0
0
0
0
0
0
0
0
0
0
192
192
0
192
192
0
192
192
0
192
192
0
192
192
0
192
192
0
192
192
0
192
192
0
192
192
0
192
192
0
192
192
0
192
192
0
192
192
0
128
128
0
128
128
0
255
255
0
255
255
0
255
255
0
192
192
0
192
192
0
192
192
0
192
192
0
192
192
0
192
192
0
192
192
0
0
0
0
0
0
0
0
0
0
0
0
0
0
0
0
0
0
0
0
0
0
0
0
0
0
0
0
0
0
0
0
0
0
0
0
0
128
0
0
128
0
0
128
0
0
128
0
0
128
0
0
128
0
0
128
0
0
128
0
0
128
0
0
128
0
0
128
0
0
128
0
0
128
0
0
128
0
0
128
0
0
128
0
0
0
0
0
0
0
0
0
0
0
0
0
0
0
0
0
0
0
0
0
0
0
0
0
0
0
0
0
0
0
0
241
241
0
241
241
0
241
241
0
241
241
0
0
0
0
0
0
0
0
0
0
0
0
0
0
0
0
0
0
0
0
0
0
0
0
0
0
0
0
0
0
0
0
0
0
0
0
0
0
0
0
0
0
0
0
0
0
0
0
0
0
0
0
0
0
0
0
0
0
0
0
0
0
0
0
0
0
0
0
0
0
0
0
0
0
0
0
0
0
0
0
0
0
0
0
0
0
0
0
0
0
0
192
192
192
192
192
192
192
192
192
192
192
192
192
192
192
192
192
192
192
192
192
192
192
192
192
192
192
192
192
192
192
192
192
192
192
192
192
192
192
192
192
192
128
128
128
128
128
128
128
128
128
128
128
128
192
192
192
192
192
192
192
192
192
192
192
192
192
192
192
0
0
0
0
0
0
0
0
0
0
0
0
0
0
0
