P3
# CREATOR: GIMP PNM Filter Version 1.1
64 32
255
159
159
101
159
159
101
159
159
101
159
159
101
117
117
101
117
117
101
159
159
101
159
159
101
142
142
101
142
142
101
142
142
101
142
142
101
159
159
101
159
159
101
159
159
101
159
159
101
159
159
101
159
159
101
142
142
101
142
142
101
159
159
101
159
159
101
159
159
101
159
159
101
159
159
101
159
159
101
142
142
101
142
142
101
117
117
101
117
117
101
159
159
101
159
159
101
159
159
101
159
159
101
159
159
101
159
159
101
117
117
101
117
117
101
159
159
101
159
159
101
142
142
101
142
142
101
142
142
101
142
142
101
159
159
101
159
159
101
77
101
101
77
101
101
77
101
101
77
101
101
77
101
101
77
101
101
77
101
101
77
101
101
77
101
101
77
101
101
159
159
101
159
159
101
142
142
101
142
142
101
117
117
101
117
117
101
159
159
101
159
159
101
159
159
101
159
159
101
159
159
101
159
159
101
117
117
101
117
117
101
159
159
101
159
159
101
142
142
101
142
142
101
142
142
101
142
142
101
159
159
101
159
159
101
159
159
101
159
159
101
159
159
101
159
159
101
142
142
101
142
142
101
159
159
101
159
159
101
159
159
101
159
159
101
159
159
101
159
159
101
142
142
101
142
142
101
117
117
101
117
117
101
159
159
101
159
159
101
159
159
101
159
159
101
159
159
101
159
159
101
117
117
101
117
117
101
159
159
101
159
159
101
142
142
101
142
142
101
142
142
101
142
142
101
159
159
101
159
159
101
77
101
101
77
101
101
77
101
101
77
101
101
77
101
101
77
101
101
77
101
101
77
101
101
77
101
101
77
101
101
159
159
101
159
159
101
142
142
101
142
142
101
117
117
101
117
117
101
159
159
101
159
159
101
117
117
101
117
117
101
117
117
101
117
117
101
159
159
101
159
159
101
142
142
101
142
142
101
159
159
101
159
159
101
159
159
101
159
159
101
117
117
101
117
117
101
142
142
101
142
142
101
142
142
101
142
142
101
117
117
101
117
117
101
117
117
101
117
117
101
159
159
101
159
159
101
142
142
101
142
142
101
117
117
101
117
117
101
117
117
101
117
117
101
142
142
101
142
142
101
117
117
101
117
117
101
117
117
101
117
117
101
159
159
101
159
159
101
142
142
101
142
142
101
159
159
101
159
159
101
77
101
101
77
101
101
77
101
101
77
101
101
159
177
185
159
177
185
185
220
220
185
220
220
185
220
220
185
220
220
185
220
220
185
220
220
168
203
203
168
203
203
77
101
101
77
101
101
117
117
101
117
117
101
117
117
101
117
117
101
142
142
101
142
142
101
117
117
101
117
117
101
117
117
101
117
117
101
159
159
101
159
159
101
142
142
101
142
142
101
159
159
101
159
159
101
159
159
101
159
159
101
117
117
101
117
117
101
142
142
101
142
142
101
142
142
101
142
142
101
117
117
101
117
117
101
117
117
101
117
117
101
159
159
101
159
159
101
142
142
101
142
142
101
117
117
101
117
117
101
117
117
101
117
117
101
142
142
101
142
142
101
117
117
101
117
117
101
117
117
101
117
117
101
159
159
101
159
159
101
142
142
101
142
142
101
159
159
101
159
159
101
77
101
101
77
101
101
77
101
101
77
101
101
159
177
185
159
177
185
185
220
220
185
220
220
185
220
220
185
220
220
185
220
220
185
220
220
168
203
203
168
203
203
77
101
101
77
101
101
117
117
101
117
117
101
117
117
101
117
117
101
142
142
101
142
142
101
159
159
101
159
159
101
159
159
101
159
159
101
194
177
101
194
177
101
142
142
101
142
142
101
159
159
101
159
159
101
142
142
101
142
142
101
117
117
101
117
117
101
142
142
101
142
142
101
159
159
101
159
159
101
159
159
101
159
159
101
142
142
101
142
142
101
117
117
101
117
117
101
117
117
101
117
117
101
159
159
101
159
159
101
159
159
101
159
159
101
117
117
101
117
117
101
159
159
101
159
159
101
159
159
101
159
159
101
194
177
101
194
177
101
77
101
101
77
101
101
77
101
101
77
101
101
185
220
220
185
220
220
185
220
220
185
220
220
159
177
185
159
177
185
168
203
203
168
203
203
185
220
220
185
220
220
185
220
220
185
220
220
168
203
203
168
203
203
159
177
185
159
177
185
77
101
101
77
101
101
159
159
101
159
159
101
117
117
101
117
117
101
159
159
101
159
159
101
159
159
101
159
159
101
194
177
101
194
177
101
142
142
101
142
142
101
159
159
101
159
159
101
142
142
101
142
142
101
117
117
101
117
117
101
142
142
101
142
142
101
159
159
101
159
159
101
159
159
101
159
159
101
142
142
101
142
142
101
117
117
101
117
117
101
117
117
101
117
117
101
159
159
101
159
159
101
159
159
101
159
159
101
117
117
101
117
117
101
159
159
101
159
159
101
159
159
101
159
159
101
194
177
101
194
177
101
77
101
101
77
101
101
77
101
101
77
101
101
185
220
220
185
220
220
185
220
220
185
220
220
159
177
185
159
177
185
168
203
203
168
203
203
185
220
220
185
220
220
185
220
220
185
220
220
168
203
203
168
203
203
159
177
185
159
177
185
77
101
101
77
101
101
159
159
101
159
159
101
117
117
101
117
117
101
142
142
101
142
142
101
159
159
101
159
159
101
159
159
101
159
159
101
159
159
101
159
159
101
117
117
101
117
117
101
117
117
101
117
117
101
159
159
101
159
159
101
159
159
101
159
159
101
159
159
101
159
159
101
159
159
101
159
159
101
142
142
101
142
142
101
117
117
101
117
117
101
159
159
101
159
159
101
159
159
101
159
159
101
159
159
101
159
159
101
142
142
101
142
142
101
142
142
101
142
142
101
159
159
101
159
159
101
77
101
101
77
101
101
168
203
203
168
203
203
185
220
220
185
220
220
185
220
220
185
220
220
185
220
220
185
220
220
185
220
220
185
220
220
168
203
203
168
203
203
159
177
185
159
177
185
159
177
185
159
177
185
159
177
185
159
177
185
159
177
185
159
177
185
168
203
203
168
203
203
77
101
101
77
101
101
142
142
101
142
142
101
142
142
101
142
142
101
159
159
101
159
159
101
159
159
101
159
159
101
159
159
101
159
159
101
117
117
101
117
117
101
117
117
101
117
117
101
159
159
101
159
159
101
159
159
101
159
159
101
159
159
101
159
159
101
159
159
101
159
159
101
142
142
101
142
142
101
117
117
101
117
117
101
159
159
101
159
159
101
159
159
101
159
159
101
159
159
101
159
159
101
142
142
101
142
142
101
142
142
101
142
142
101
159
159
101
159
159
101
77
101
101
77
101
101
168
203
203
168
203
203
185
220
220
185
220
220
185
220
220
185
220
220
185
220
220
185
220
220
185
220
220
185
220
220
168
203
203
168
203
203
159
177
185
159
177
185
159
177
185
159
177
185
159
177
185
159
177
185
159
177
185
159
177
185
168
203
203
168
203
203
77
101
101
77
101
101
142
142
101
142
142
101
159
159
101
159
159
101
117
117
101
117
117
101
159
159
101
159
159
101
194
177
101
194
177
101
159
159
101
159
159
101
117
117
101
117
117
101
159
159
101
159
159
101
159
159
101
159
159
101
159
159
101
159
159
101
142
142
101
142
142
101
117
117
101
117
117
101
117
117
101
117
117
101
159
159
101
159
159
101
159
159
101
159
159
101
142
142
101
142
142
101
159
159
101
159
159
101
159
159
101
159
159
101
117
117
101
117
117
101
77
101
101
77
101
101
159
177
185
159
177
185
185
220
220
185
220
220
185
220
220
185
220
220
185
220
220
185
220
220
185
220
220
185
220
220
117
142
142
117
142
142
159
177
185
159
177
185
159
177
185
159
177
185
159
177
185
159
177
185
159
177
185
159
177
185
159
177
185
159
177
185
77
101
101
77
101
101
159
159
101
159
159
101
159
159
101
159
159
101
117
117
101
117
117
101
159
159
101
159
159
101
194
177
101
194
177
101
159
159
101
159
159
101
117
117
101
117
117
101
159
159
101
159
159
101
159
159
101
159
159
101
159
159
101
159
159
101
142
142
101
142
142
101
117
117
101
117
117
101
117
117
101
117
117
101
159
159
101
159
159
101
159
159
101
159
159
101
142
142
101
142
142
101
159
159
101
159
159
101
159
159
101
159
159
101
117
117
101
117
117
101
77
101
101
77
101
101
159
177
185
159
177
185
185
220
220
185
220
220
185
220
220
185
220
220
185
220
220
185
220
220
185
220
220
185
220
220
117
142
142
117
142
142
159
177
185
159
177
185
159
177
185
159
177
185
159
177
185
159
177
185
159
177
185
159
177
185
159
177
185
159
177
185
77
101
101
77
101
101
159
159
101
159
159
101
142
142
101
142
142
101
117
117
101
117
117
101
159
159
101
159
159
101
159
159
101
159
159
101
159
159
101
159
159
101
142
142
101
142
142
101
117
117
101
117
117
101
159
159
101
159
159
101
159
159
101
159
159
101
117
117
101
117
117
101
117
117
101
117
117
101
159
159
101
159
159
101
159
159
101
159
159
101
194
177
101
194
177
101
142
142
101
142
142
101
159
159
101
159
159
101
142
142
101
142
142
101
117
117
101
117
117
101
77
101
101
77
101
101
117
142
142
117
142
142
185
220
220
185
220
220
168
203
203
168
203
203
159
177
185
159
177
185
159
177
185
159
177
185
159
177
185
159
177
185
117
142
142
117
142
142
159
177
185
159
177
185
159
177
185
159
177
185
117
142
142
117
142
142
159
177
185
159
177
185
77
101
101
77
101
101
77
101
101
77
101
101
142
142
101
142
142
101
117
117
101
117
117
101
159
159
101
159
159
101
159
159
101
159
159
101
159
159
101
159
159
101
142
142
101
142
142
101
117
117
101
117
117
101
159
159
101
159
159
101
159
159
101
159
159
101
117
117
101
117
117
101
117
117
101
117
117
101
159
159
101
159
159
101
159
159
101
159
159
101
194
177
101
194
177
101
142
142
101
142
142
101
159
159
101
159
159
101
142
142
101
142
142
101
117
117
101
117
117
101
77
101
101
77
101
101
117
142
142
117
142
142
185
220
220
185
220
220
168
203
203
168
203
203
159
177
185
159
177
185
159
177
185
159
177
185
159
177
185
159
177
185
117
142
142
117
142
142
159
177
185
159
177
185
159
177
185
159
177
185
117
142
142
117
142
142
159
177
185
159
177
185
77
101
101
77
101
101
77
101
101
77
101
101
117
117
101
117
117
101
159
159
101
159
159
101
194
177
101
194
177
101
159
159
101
159
159
101
142
142
101
142
142
101
142
142
101
142
142
101
117
117
101
117
117
101
117
117
101
117
117
101
117
117
101
117
117
101
117
117
101
117
117
101
159
159
101
159
159
101
159
159
101
159
159
101
159
159
101
159
159
101
159
159
101
159
159
101
159
159
101
159
159
101
117
117
101
117
117
101
117
117
101
117
117
101
77
101
101
77
101
101
159
177
185
159
177
185
159
177
185
159
177
185
168
203
203
168
203
203
168
203
203
168
203
203
168
203
203
168
203
203
168
203
203
168
203
203
168
203
203
168
203
203
117
142
142
117
142
142
159
177
185
159
177
185
159
177
185
159
177
185
159
177
185
159
177
185
117
142
142
117
142
142
61
69
69
61
69
69
77
101
101
77
101
101
117
117
101
117
117
101
159
159
101
159
159
101
194
177
101
194
177
101
159
159
101
159
159
101
142
142
101
142
142
101
142
142
101
142
142
101
117
117
101
117
117
101
117
117
101
117
117
101
117
117
101
117
117
101
117
117
101
117
117
101
159
159
101
159
159
101
159
159
101
159
159
101
159
159
101
159
159
101
159
159
101
159
159
101
159
159
101
159
159
101
117
117
101
117
117
101
117
117
101
117
117
101
77
101
101
77
101
101
159
177
185
159
177
185
159
177
185
159
177
185
168
203
203
168
203
203
168
203
203
168
203
203
168
203
203
168
203
203
168
203
203
168
203
203
168
203
203
168
203
203
117
142
142
117
142
142
159
177
185
159
177
185
159
177
185
159
177
185
159
177
185
159
177
185
117
142
142
117
142
142
61
69
69
61
69
69
77
101
101
77
101
101
159
159
101
159
159
101
159
159
101
159
159
101
159
159
101
159
159
101
159
159
101
159
159
101
142
142
101
142
142
101
159
159
101
159
159
101
159
159
101
159
159
101
159
159
101
159
159
101
159
159
101
159
159
101
117
117
101
117
117
101
159
159
101
159
159
101
159
159
101
159
159
101
194
177
101
194
177
101
159
159
101
159
159
101
159
159
101
159
159
101
159
159
101
159
159
101
159
159
101
159
159
101
77
101
101
77
101
101
159
177
185
159
177
185
159
177
185
159
177
185
117
142
142
117
142
142
168
203
203
168
203
203
168
203
203
168
203
203
168
203
203
168
203
203
168
203
203
168
203
203
168
203
203
168
203
203
117
142
142
117
142
142
159
177
185
159
177
185
117
142
142
117
142
142
61
69
69
61
69
69
61
69
69
61
69
69
61
69
69
61
69
69
159
159
101
159
159
101
159
159
101
159
159
101
159
159
101
159
159
101
159
159
101
159
159
101
142
142
101
142
142
101
159
159
101
159
159
101
159
159
101
159
159
101
159
159
101
159
159
101
159
159
101
159
159
101
117
117
101
117
117
101
159
159
101
159
159
101
159
159
101
159
159
101
194
177
101
194
177
101
159
159
101
159
159
101
159
159
101
159
159
101
159
159
101
159
159
101
159
159
101
159
159
101
77
101
101
77
101
101
159
177
185
159
177
185
159
177
185
159
177
185
117
142
142
117
142
142
168
203
203
168
203
203
168
203
203
168
203
203
168
203
203
168
203
203
168
203
203
168
203
203
168
203
203
168
203
203
117
142
142
117
142
142
159
177
185
159
177
185
117
142
142
117
142
142
61
69
69
61
69
69
61
69
69
61
69
69
61
69
69
61
69
69
159
159
101
159
159
101
142
142
101
142
142
101
117
117
101
117
117
101
117
117
101
117
117
101
159
159
101
159
159
101
159
159
101
159
159
101
159
159
101
159
159
101
159
159
101
159
159
101
159
159
101
159
159
101
142
142
101
142
142
101
117
117
101
117
117
101
159
159
101
159
159
101
159
159
101
159
159
101
159
159
101
159
159
101
142
142
101
142
142
101
159
159
101
159
159
101
77
101
101
77
101
101
117
142
142
117
142
142
159
177
185
159
177
185
159
177
185
159
177
185
159
177
185
159
177
185
117
142
142
117
142
142
168
203
203
168
203
203
168
203
203
168
203
203
168
203
203
168
203
203
168
203
203
168
203
203
159
177
185
159
177
185
117
142
142
117
142
142
77
101
101
77
101
101
77
101
101
77
101
101
61
69
69
61
69
69
61
69
69
61
69
69
159
159
101
159
159
101
142
142
101
142
142
101
117
117
101
117
117
101
117
117
101
117
117
101
159
159
101
159
159
101
159
159
101
159
159
101
159
159
101
159
159
101
159
159
101
159
159
101
159
159
101
159
159
101
142
142
101
142
142
101
117
117
101
117
117
101
159
159
101
159
159
101
159
159
101
159
159
101
159
159
101
159
159
101
142
142
101
142
142
101
159
159
101
159
159
101
77
101
101
77
101
101
117
142
142
117
142
142
159
177
185
159
177
185
159
177
185
159
177
185
159
177
185
159
177
185
117
142
142
117
142
142
168
203
203
168
203
203
168
203
203
168
203
203
168
203
203
168
203
203
168
203
203
168
203
203
159
177
185
159
177
185
117
142
142
117
142
142
77
101
101
77
101
101
77
101
101
77
101
101
61
69
69
61
69
69
61
69
69
61
69
69
142
142
101
142
142
101
142
142
101
142
142
101
159
159
101
159
159
101
142
142
101
142
142
101
142
142
101
142
142
101
159
159
101
159
159
101
159
159
101
159
159
101
159
159
101
159
159
101
159
159
101
159
159
101
142
142
101
142
142
101
117
117
101
117
117
101
159
159
101
159
159
101
159
159
101
159
159
101
159
159
101
159
159
101
159
159
101
159
159
101
159
159
101
159
159
101
61
69
69
61
69
69
117
142
142
117
142
142
117
142
142
117
142
142
159
177
185
159
177
185
159
177
185
159
177
185
117
142
142
117
142
142
117
142
142
117
142
142
117
142
142
117
142
142
117
142
142
117
142
142
159
177
185
159
177
185
77
101
101
77
101
101
61
69
69
61
69
69
77
101
101
77
101
101
77
101
101
77
101
101
77
101
101
77
101
101
61
69
69
61
69
69
142
142
101
142
142
101
142
142
101
142
142
101
159
159
101
159
159
101
142
142
101
142
142
101
142
142
101
142
142
101
159
159
101
159
159
101
159
159
101
159
159
101
159
159
101
159
159
101
159
159
101
159
159
101
142
142
101
142
142
101
117
117
101
117
117
101
159
159
101
159
159
101
159
159
101
159
159
101
159
159
101
159
159
101
159
159
101
159
159
101
159
159
101
159
159
101
61
69
69
61
69
69
117
142
142
117
142
142
117
142
142
117
142
142
159
177
185
159
177
185
159
177
185
159
177
185
117
142
142
117
142
142
117
142
142
117
142
142
117
142
142
117
142
142
117
142
142
117
142
142
159
177
185
159
177
185
77
101
101
77
101
101
61
69
69
61
69
69
77
101
101
77
101
101
77
101
101
77
101
101
77
101
101
77
101
101
61
69
69
61
69
69
142
142
101
142
142
101
159
159
101
159
159
101
159
159
101
159
159
101
159
159
101
159
159
101
117
117
101
117
117
101
142
142
101
142
142
101
159
159
101
159
159
101
159
159
101
159
159
101
142
142
101
142
142
101
117
117
101
117
117
101
117
117
101
117
117
101
159
159
101
159
159
101
159
159
101
159
159
101
194
177
101
194
177
101
159
159
101
159
159
101
159
159
101
159
159
101
61
69
69
61
69
69
117
142
142
117
142
142
117
142
142
117
142
142
159
177
185
159
177
185
117
142
142
117
142
142
77
101
101
77
101
101
117
142
142
117
142
142
117
142
142
117
142
142
77
101
101
77
101
101
61
69
69
61
69
69
61
69
69
61
69
69
77
101
101
77
101
101
77
101
101
77
101
101
77
101
101
77
101
101
77
101
101
77
101
101
61
69
69
61
69
69
142
142
101
142
142
101
159
159
101
159
159
101
159
159
101
159
159
101
159
159
101
159
159
101
117
117
101
117
117
101
142
142
101
142
142
101
159
159
101
159
159
101
159
159
101
159
159
101
142
142
101
142
142
101
117
117
101
117
117
101
117
117
101
117
117
101
159
159
101
159
159
101
159
159
101
159
159
101
194
177
101
194
177
101
159
159
101
159
159
101
159
159
101
159
159
101
61
69
69
61
69
69
117
142
142
117
142
142
117
142
142
117
142
142
159
177
185
159
177
185
117
142
142
117
142
142
77
101
101
77
101
101
117
142
142
117
142
142
117
142
142
117
142
142
77
101
101
77
101
101
61
69
69
61
69
69
61
69
69
61
69
69
77
101
101
77
101
101
77
101
101
77
101
101
77
101
101
77
101
101
77
101
101
77
101
101
61
69
69
61
69
69
142
142
101
142
142
101
159
159
101
159
159
101
159
159
101
159
159
101
159
159
101
159
159
101
159
159
101
159
159
101
117
117
101
117
117
101
142
142
101
142
142
101
142
142
101
142
142
101
117
117
101
117
117
101
117
117
101
117
117
101
159
159
101
159
159
101
159
159
101
159
159
101
159
159
101
159
159
101
159
159
101
159
159
101
159
159
101
159
159
101
142
142
101
142
142
101
61
69
69
61
69
69
77
101
101
77
101
101
117
142
142
117
142
142
117
142
142
117
142
142
117
142
142
117
142
142
77
101
101
77
101
101
117
142
142
117
142
142
117
142
142
117
142
142
117
142
142
117
142
142
77
101
101
77
101
101
61
69
69
61
69
69
77
101
101
77
101
101
77
101
101
77
101
101
77
101
101
77
101
101
77
101
101
77
101
101
61
69
69
61
69
69
142
142
101
142
142
101
159
159
101
159
159
101
159
159
101
159
159
101
159
159
101
159
159
101
159
159
101
159
159
101
117
117
101
117
117
101
142
142
101
142
142
101
142
142
101
142
142
101
117
117
101
117
117
101
117
117
101
117
117
101
159
159
101
159
159
101
159
159
101
159
159
101
159
159
101
159
159
101
159
159
101
159
159
101
159
159
101
159
159
101
142
142
101
142
142
101
61
69
69
61
69
69
77
101
101
77
101
101
117
142
142
117
142
142
117
142
142
117
142
142
117
142
142
117
142
142
77
101
101
77
101
101
117
142
142
117
142
142
117
142
142
117
142
142
117
142
142
117
142
142
77
101
101
77
101
101
61
69
69
61
69
69
77
101
101
77
101
101
77
101
101
77
101
101
77
101
101
77
101
101
77
101
101
77
101
101
61
69
69
61
69
69
142
142
101
142
142
101
142
142
101
142
142
101
159
159
101
159
159
101
159
159
101
159
159
101
117
117
101
117
117
101
117
117
101
117
117
101
117
117
101
117
117
101
117
117
101
117
117
101
117
117
101
117
117
101
159
159
101
159
159
101
159
159
101
159
159
101
117
117
101
117
117
101
117
117
101
117
117
101
142
142
101
142
142
101
159
159
101
159
159
101
159
159
101
159
159
101
77
101
101
77
101
101
77
101
101
77
101
101
77
101
101
77
101
101
117
142
142
117
142
142
77
101
101
77
101
101
77
101
101
77
101
101
117
142
142
117
142
142
117
142
142
117
142
142
117
142
142
117
142
142
117
142
142
117
142
142
61
69
69
61
69
69
61
69
69
61
69
69
77
101
101
77
101
101
77
101
101
77
101
101
61
69
69
61
69
69
159
159
101
159
159
101
142
142
101
142
142
101
142
142
101
142
142
101
159
159
101
159
159
101
159
159
101
159
159
101
117
117
101
117
117
101
117
117
101
117
117
101
117
117
101
117
117
101
117
117
101
117
117
101
117
117
101
117
117
101
159
159
101
159
159
101
159
159
101
159
159
101
117
117
101
117
117
101
117
117
101
117
117
101
142
142
101
142
142
101
159
159
101
159
159
101
159
159
101
159
159
101
77
101
101
77
101
101
77
101
101
77
101
101
77
101
101
77
101
101
117
142
142
117
142
142
77
101
101
77
101
101
77
101
101
77
101
101
117
142
142
117
142
142
117
142
142
117
142
142
117
142
142
117
142
142
117
142
142
117
142
142
61
69
69
61
69
69
61
69
69
61
69
69
77
101
101
77
101
101
77
101
101
77
101
101
61
69
69
61
69
69
159
159
101
159
159
101
159
159
101
159
159
101
159
159
101
159
159
101
142
142
101
142
142
101
117
117
101
117
117
101
117
117
101
117
117
101
159
159
101
159
159
101
159
159
101
159
159
101
159
159
101
159
159
101
159
159
101
159
159
101
159
159
101
159
159
101
142
142
101
142
142
101
159
159
101
159
159
101
159
159
101
159
159
101
117
117
101
117
117
101
117
117
101
117
117
101
117
117
101
117
117
101
159
159
101
159
159
101
61
69
69
61
69
69
77
101
101
77
101
101
77
101
101
77
101
101
61
69
69
61
69
69
61
69
69
61
69
69
77
101
101
77
101
101
117
142
142
117
142
142
117
142
142
117
142
142
117
142
142
117
142
142
61
69
69
61
69
69
61
69
69
61
69
69
61
69
69
61
69
69
61
69
69
61
69
69
61
69
69
61
69
69
117
117
101
117
117
101
159
159
101
159
159
101
159
159
101
159
159
101
142
142
101
142
142
101
117
117
101
117
117
101
117
117
101
117
117
101
159
159
101
159
159
101
159
159
101
159
159
101
159
159
101
159
159
101
159
159
101
159
159
101
159
159
101
159
159
101
142
142
101
142
142
101
159
159
101
159
159
101
159
159
101
159
159
101
117
117
101
117
117
101
117
117
101
117
117
101
117
117
101
117
117
101
159
159
101
159
159
101
61
69
69
61
69
69
77
101
101
77
101
101
77
101
101
77
101
101
61
69
69
61
69
69
61
69
69
61
69
69
77
101
101
77
101
101
117
142
142
117
142
142
117
142
142
117
142
142
117
142
142
117
142
142
61
69
69
61
69
69
61
69
69
61
69
69
61
69
69
61
69
69
61
69
69
61
69
69
61
69
69
61
69
69
117
117
101
117
117
101
159
159
101
159
159
101
159
159
101
159
159
101
159
159
101
159
159
101
117
117
101
117
117
101
159
159
101
159
159
101
159
159
101
159
159
101
194
177
101
194
177
101
159
159
101
159
159
101
159
159
101
159
159
101
117
117
101
117
117
101
159
159
101
159
159
101
159
159
101
159
159
101
159
159
101
159
159
101
159
159
101
159
159
101
117
117
101
117
117
101
142
142
101
142
142
101
159
159
101
159
159
101
159
159
101
159
159
101
61
69
69
61
69
69
61
69
69
61
69
69
61
69
69
61
69
69
61
69
69
61
69
69
77
101
101
77
101
101
77
101
101
77
101
101
117
142
142
117
142
142
77
101
101
77
101
101
61
69
69
61
69
69
61
69
69
61
69
69
61
69
69
61
69
69
61
69
69
61
69
69
117
117
101
117
117
101
142
142
101
142
142
101
159
159
101
159
159
101
159
159
101
159
159
101
159
159
101
159
159
101
117
117
101
117
117
101
159
159
101
159
159
101
159
159
101
159
159
101
194
177
101
194
177
101
159
159
101
159
159
101
159
159
101
159
159
101
117
117
101
117
117
101
159
159
101
159
159
101
159
159
101
159
159
101
159
159
101
159
159
101
159
159
101
159
159
101
117
117
101
117
117
101
142
142
101
142
142
101
159
159
101
159
159
101
159
159
101
159
159
101
61
69
69
61
69
69
61
69
69
61
69
69
61
69
69
61
69
69
61
69
69
61
69
69
77
101
101
77
101
101
77
101
101
77
101
101
117
142
142
117
142
142
77
101
101
77
101
101
61
69
69
61
69
69
61
69
69
61
69
69
61
69
69
61
69
69
61
69
69
61
69
69
117
117
101
117
117
101
142
142
101
142
142
101
159
159
101
159
159
101
159
159
101
159
159
101
117
117
101
117
117
101
117
117
101
117
117
101
194
177
101
194
177
101
159
159
101
159
159
101
159
159
101
159
159
101
159
159
101
159
159
101
159
159
101
159
159
101
117
117
101
117
117
101
159
159
101
159
159
101
159
159
101
159
159
101
159
159
101
159
159
101
159
159
101
159
159
101
117
117
101
117
117
101
142
142
101
142
142
101
159
159
101
159
159
101
159
159
101
159
159
101
117
117
101
117
117
101
117
117
101
117
117
101
61
69
69
61
69
69
61
69
69
61
69
69
61
69
69
61
69
69
61
69
69
61
69
69
61
69
69
61
69
69
61
69
69
61
69
69
61
69
69
61
69
69
61
69
69
61
69
69
61
69
69
61
69
69
159
159
101
159
159
101
117
117
101
117
117
101
142
142
101
142
142
101
159
159
101
159
159
101
159
159
101
159
159
101
117
117
101
117
117
101
117
117
101
117
117
101
194
177
101
194
177
101
159
159
101
159
159
101
159
159
101
159
159
101
159
159
101
159
159
101
159
159
101
159
159
101
117
117
101
117
117
101
159
159
101
159
159
101
159
159
101
159
159
101
159
159
101
159
159
101
159
159
101
159
159
101
117
117
101
117
117
101
142
142
101
142
142
101
159
159
101
159
159
101
159
159
101
159
159
101
117
117
101
117
117
101
117
117
101
117
117
101
61
69
69
61
69
69
61
69
69
61
69
69
61
69
69
61
69
69
61
69
69
61
69
69
61
69
69
61
69
69
61
69
69
61
69
69
61
69
69
61
69
69
61
69
69
61
69
69
61
69
69
61
69
69
159
159
101
159
159
101
117
117
101
117
117
101
142
142
101
142
142
101
